<svg width="24" height="24" viewBox="0 0 24 24" fill="none" xmlns="http://www.w3.org/2000/svg">
<path opacity="0.32" d="M2.162 8.5C2 9.603 2 11.05 2 13C2 16.771 2 18.657 3.172 19.828C4.343 21 6.229 21 10 21H14C17.771 21 19.657 21 20.828 19.828C22 18.657 22 16.771 22 13C22 11.05 22 9.603 21.838 8.5C19.561 9.98 18.102 10.923 16.75 11.505V12C16.7511 12.0985 16.7327 12.1962 16.696 12.2876C16.6593 12.379 16.6049 12.4623 16.536 12.5327C16.3968 12.6748 16.2069 12.7559 16.008 12.758C15.8091 12.7601 15.6175 12.6831 15.4753 12.544C15.3332 12.4048 15.2521 12.2149 15.25 12.016C13.1197 12.5776 10.8803 12.5776 8.75 12.016C8.74788 12.2149 8.66683 12.4048 8.52467 12.544C8.38252 12.6831 8.19091 12.7601 7.992 12.758C7.79309 12.7559 7.60317 12.6748 7.46401 12.5327C7.32486 12.3905 7.24788 12.1989 7.25 12V11.504C5.898 10.924 4.44 9.98 2.162 8.5Z" fill="#00A76F"/>
<path fill-rule="evenodd" clip-rule="evenodd" d="M10.5811 2.24987H10.5611C10.4471 2.24987 10.3591 2.24987 10.2751 2.25487C9.75548 2.28646 9.25555 2.46485 8.83336 2.76933C8.41116 3.0738 8.08406 3.49185 7.89005 3.97487C7.84743 4.08827 7.80742 4.20263 7.77005 4.31787L7.76605 4.32987C7.6629 4.60253 7.48851 4.84253 7.26105 5.02487C7.03405 5.03287 6.81705 5.04187 6.60905 5.05487C4.96505 5.15087 3.92205 5.42087 3.17105 6.17187C2.92705 6.41587 2.73305 6.69187 2.58105 7.00987C2.63951 7.02993 2.69527 7.05713 2.74705 7.09087C4.84705 8.45587 6.16705 9.31087 7.26305 9.85787C7.29773 9.67403 7.39986 9.50978 7.54941 9.39736C7.69896 9.28495 7.88512 9.23249 8.07136 9.25027C8.2576 9.26806 8.43046 9.3548 8.55603 9.49349C8.6816 9.63218 8.7508 9.81279 8.75005 9.99987V10.4579C10.8701 11.0979 13.1301 11.0979 15.2501 10.4579V9.99987C15.2506 9.81369 15.3204 9.63438 15.4458 9.49679C15.5713 9.35921 15.7434 9.2732 15.9287 9.25549C16.114 9.23778 16.2993 9.28964 16.4486 9.40097C16.5978 9.51231 16.7003 9.67517 16.7361 9.85787C17.8331 9.30987 19.1531 8.45587 21.2531 7.09087C21.3052 7.0571 21.3613 7.02989 21.4201 7.00987C21.2719 6.69884 21.0717 6.41542 20.8281 6.17187C20.0781 5.42187 19.0351 5.15187 17.3911 5.05387C17.1941 5.04287 16.9881 5.03387 16.7731 5.02587C16.5214 4.82085 16.3271 4.55421 16.2091 4.25187L16.2051 4.24287C16.1691 4.13587 16.1411 4.05187 16.1101 3.97387C15.9159 3.49103 15.5887 3.0732 15.1665 2.76891C14.7444 2.46462 14.2445 2.28637 13.7251 2.25487C13.6298 2.25037 13.5344 2.24871 13.4391 2.24987H10.5811ZM14.8181 4.81587L14.8131 4.80487L14.8081 4.79287L14.8031 4.78087L14.8001 4.77087L14.7981 4.76587L14.7941 4.75387L14.7901 4.74187L14.7881 4.73587L14.7851 4.72787L14.7831 4.72087L14.7811 4.71487C14.7616 4.65402 14.7406 4.59366 14.7181 4.53387C14.6299 4.31429 14.4812 4.12424 14.2894 3.98581C14.0975 3.84738 13.8702 3.76626 13.6341 3.75187C13.5624 3.74937 13.4907 3.7487 13.4191 3.74987H10.5811C10.4381 3.74987 10.3981 3.74987 10.3661 3.75187C10.1299 3.76626 9.90264 3.84738 9.71075 3.98581C9.51886 4.12424 9.3702 4.31429 9.28205 4.53387L9.27905 4.54087L9.27105 4.56187C9.24337 4.63796 9.21736 4.71464 9.19305 4.79187L9.19205 4.79787L9.18905 4.80487L9.18705 4.81287L9.18505 4.81887L9.18105 4.83087L9.17605 4.84287L9.17505 4.84787L9.17105 4.85787L9.16605 4.86987L9.16205 4.88187L9.15705 4.89187C9.14312 4.92817 9.12845 4.96517 9.11305 5.00087L10.0001 4.99987H14.8961C14.8677 4.93943 14.8423 4.87806 14.8181 4.81587Z" fill="#00A76F"/>
</svg>
