<svg width="22" height="22" viewBox="0 0 22 22" fill="none" xmlns="http://www.w3.org/2000/svg">
<path d="M9.31977 10.9999C8.85583 10.9999 8.47977 11.3742 8.47977 11.8359C8.47977 12.2976 8.85583 12.6719 9.31977 12.6719H12.6798C13.1437 12.6719 13.5198 12.2976 13.5198 11.8359C13.5198 11.3742 13.1437 10.9999 12.6798 10.9999H9.31977Z" fill="#2BAF66"/>
<path fill-rule="evenodd" clip-rule="evenodd" d="M4.27977 2.63989C2.888 2.63989 1.75977 3.76276 1.75977 5.14789V16.8519C1.75977 18.237 2.888 19.3599 4.27977 19.3599H17.7198C19.1115 19.3599 20.2398 18.237 20.2398 16.8519V5.14789C20.2398 3.76276 19.1115 2.63989 17.7198 2.63989H4.27977ZM17.7198 4.31189H4.27977C3.81583 4.31189 3.43977 4.68616 3.43977 5.14789V7.65589H18.5598V5.14789C18.5598 4.68616 18.1837 4.31189 17.7198 4.31189ZM3.43977 16.8519V9.32789H18.5598V16.8519C18.5598 17.3136 18.1837 17.6879 17.7198 17.6879H4.27977C3.81583 17.6879 3.43977 17.3136 3.43977 16.8519Z" fill="#2BAF66"/>
</svg>
