<svg width="22" height="22" viewBox="0 0 22 22" fill="none" xmlns="http://www.w3.org/2000/svg">
<g clip-path="url(#clip0_0_6679)">
<path d="M19.7633 7.90145C19.1301 7.32846 18.0996 7.3285 17.4661 7.90158L15.8373 9.37653V5.49465C15.8373 5.10213 15.6684 4.73311 15.3616 4.45556L13.8303 3.07006C13.5235 2.79248 13.1156 2.63965 12.6818 2.63965H3.38496C2.48937 2.63965 1.76074 3.29888 1.76074 4.10918V17.8901C1.76074 18.7004 2.48937 19.3596 3.38496 19.3596H14.2131C15.1087 19.3596 15.8373 18.7004 15.8373 17.8901V13.5348L19.7633 9.9797C20.3981 9.4054 20.3982 8.47581 19.7633 7.90145ZM12.5889 3.61934C12.6912 3.61934 12.8883 3.6033 13.0646 3.76279L14.5959 5.1483C14.7677 5.30378 14.7545 5.47415 14.7545 5.57871H12.5889V3.61934ZM14.7545 17.8901C14.7545 18.1602 14.5117 18.38 14.2131 18.38H3.38496C3.08643 18.38 2.84355 18.1602 2.84355 17.8901V4.10918C2.84355 3.83908 3.08643 3.61934 3.38496 3.61934H11.5061V6.06855C11.5061 6.33908 11.7485 6.5584 12.0475 6.5584H14.7545V10.3571L12.3918 12.496C12.3324 12.5497 12.2876 12.6153 12.261 12.6874L11.4953 14.7657C11.4635 14.852 11.4589 14.9446 11.482 15.0331C11.5051 15.1217 11.555 15.2027 11.6261 15.267C11.6972 15.3313 11.7867 15.3765 11.8846 15.3974C11.9824 15.4182 12.0848 15.4141 12.1802 15.3853L14.4772 14.6925C14.5569 14.6685 14.6294 14.628 14.6888 14.5742L14.7545 14.5148V17.8901ZM13.5403 12.8423L14.306 13.5351L14.0135 13.7997L12.865 14.146L13.2478 13.1069L13.5403 12.8423ZM15.0715 12.8422L14.3058 12.1494L16.9083 9.79277L17.674 10.4855L15.0715 12.8422ZM18.9975 9.28709L18.4394 9.79248L17.6737 9.09974L18.232 8.59419C18.4432 8.40318 18.7866 8.40322 18.9977 8.59419C19.2087 8.78523 19.2099 9.09491 18.9975 9.28709Z" fill="#00A76F"/>
<path d="M12.0475 7.53809H4.46777C4.16877 7.53809 3.92637 7.75741 3.92637 8.02793C3.92637 8.29845 4.16877 8.51777 4.46777 8.51777H12.0475C12.3465 8.51777 12.5889 8.29845 12.5889 8.02793C12.5889 7.75741 12.3465 7.53809 12.0475 7.53809ZM9.88184 9.49746H4.46777C4.16877 9.49746 3.92637 9.71678 3.92637 9.9873C3.92637 10.2578 4.16877 10.4771 4.46777 10.4771H9.88184C10.1808 10.4771 10.4232 10.2578 10.4232 9.9873C10.4232 9.71678 10.1808 9.49746 9.88184 9.49746ZM9.88184 11.4568H4.46777C4.16877 11.4568 3.92637 11.6762 3.92637 11.9467C3.92637 12.2172 4.16877 12.4365 4.46777 12.4365H9.88184C10.1808 12.4365 10.4232 12.2172 10.4232 11.9467C10.4232 11.6762 10.1808 11.4568 9.88184 11.4568ZM9.88184 13.4162H4.46777C4.16877 13.4162 3.92637 13.6355 3.92637 13.9061C3.92637 14.1766 4.16877 14.3959 4.46777 14.3959H9.88184C10.1808 14.3959 10.4232 14.1766 10.4232 13.9061C10.4232 13.6355 10.1808 13.4162 9.88184 13.4162ZM12.0475 16.4206H8.79902C8.50002 16.4206 8.25762 16.6399 8.25762 16.9104C8.25762 17.181 8.50002 17.4003 8.79902 17.4003H12.0475C12.3465 17.4003 12.5889 17.181 12.5889 16.9104C12.5889 16.6399 12.3465 16.4206 12.0475 16.4206Z" fill="#00A76F"/>
</g>
<defs>
<clipPath id="clip0_0_6679">
<rect width="18.48" height="16.72" fill="white" transform="translate(1.75977 2.63965)"/>
</clipPath>
</defs>
</svg>
