<svg width="22" height="22" viewBox="0 0 22 22" fill="none" xmlns="http://www.w3.org/2000/svg">
<path d="M9.31977 11.0001C8.85583 11.0001 8.47977 11.3744 8.47977 11.8361C8.47977 12.2979 8.85583 12.6721 9.31977 12.6721H12.6798C13.1437 12.6721 13.5198 12.2979 13.5198 11.8361C13.5198 11.3744 13.1437 11.0001 12.6798 11.0001H9.31977Z" fill="#637381"/>
<path fill-rule="evenodd" clip-rule="evenodd" d="M4.27977 2.64014C2.888 2.64014 1.75977 3.763 1.75977 5.14814V16.8521C1.75977 18.2373 2.888 19.3601 4.27977 19.3601H17.7198C19.1115 19.3601 20.2398 18.2373 20.2398 16.8521V5.14814C20.2398 3.763 19.1115 2.64014 17.7198 2.64014H4.27977ZM17.7198 4.31214H4.27977C3.81583 4.31214 3.43977 4.68641 3.43977 5.14814V7.65614H18.5598V5.14814C18.5598 4.68641 18.1837 4.31214 17.7198 4.31214ZM3.43977 16.8521V9.32814H18.5598V16.8521C18.5598 17.3139 18.1837 17.6881 17.7198 17.6881H4.27977C3.81583 17.6881 3.43977 17.3139 3.43977 16.8521Z" fill="#637381"/>
</svg>
