<svg width="28" height="28" viewBox="0 0 28 28" fill="none" xmlns="http://www.w3.org/2000/svg">
<path d="M0 14C0 6.26801 6.26801 0 14 0C21.732 0 28 6.26801 28 14C28 21.732 21.732 28 14 28C6.26801 28 0 21.732 0 14Z" fill="black" fill-opacity="0.48"/>
<path fill-rule="evenodd" clip-rule="evenodd" d="M13.9956 15.0564L18.2363 19.2974C18.3777 19.434 18.5671 19.5096 18.7636 19.5079C18.9602 19.5062 19.1482 19.4273 19.2872 19.2883C19.4262 19.1493 19.505 18.9613 19.5067 18.7647C19.5084 18.5681 19.4328 18.3788 19.2963 18.2374L15.0556 13.9964L19.2963 9.75537C19.4328 9.61398 19.5084 9.42461 19.5067 9.22804C19.505 9.03147 19.4262 8.84344 19.2872 8.70444C19.1482 8.56544 18.9602 8.4866 18.7636 8.48489C18.5671 8.48318 18.3777 8.55875 18.2363 8.69531L13.9956 12.9363L9.75491 8.69531C9.61289 8.56212 9.42463 8.48942 9.22996 8.49258C9.03529 8.49574 8.84949 8.57452 8.71187 8.71225C8.57425 8.84998 8.49561 9.03585 8.49258 9.23053C8.48956 9.42522 8.56239 9.61344 8.69567 9.75537L12.9356 13.9964L8.69492 18.2374C8.62332 18.3065 8.56621 18.3893 8.52693 18.4807C8.48764 18.5722 8.46696 18.6706 8.46609 18.7701C8.46523 18.8697 8.48419 18.9684 8.52189 19.0605C8.55958 19.1526 8.61524 19.2363 8.68563 19.3067C8.75601 19.3771 8.83971 19.4328 8.93184 19.4705C9.02397 19.5082 9.12268 19.5272 9.22222 19.5263C9.32175 19.5254 9.42012 19.5047 9.51158 19.4654C9.60304 19.4262 9.68576 19.369 9.75491 19.2974L13.9956 15.0564Z" fill="white"/>
</svg>
