<svg width="24" height="24" viewBox="0 0 24 24" fill="none" xmlns="http://www.w3.org/2000/svg">
<path opacity="0.32" d="M2.162 8.5C2 9.603 2 11.05 2 13C2 16.771 2 18.657 3.172 19.828C4.343 21 6.229 21 10 21H14C17.771 21 19.657 21 20.828 19.828C22 18.657 22 16.771 22 13C22 11.05 22 9.603 21.838 8.5C19.561 9.98 18.102 10.923 16.75 11.505V12C16.7511 12.0985 16.7327 12.1962 16.696 12.2876C16.6593 12.379 16.6049 12.4623 16.536 12.5327C16.3968 12.6748 16.2069 12.7559 16.008 12.758C15.8091 12.7601 15.6175 12.6831 15.4753 12.544C15.3332 12.4048 15.2521 12.2149 15.25 12.016C13.1197 12.5776 10.8803 12.5776 8.75 12.016C8.74788 12.2149 8.66683 12.4048 8.52467 12.544C8.38252 12.6831 8.19091 12.7601 7.992 12.758C7.79309 12.7559 7.60317 12.6748 7.46401 12.5327C7.32486 12.3905 7.24788 12.1989 7.25 12V11.504C5.898 10.924 4.44 9.98 2.162 8.5Z" fill="#637381"/>
<path fill-rule="evenodd" clip-rule="evenodd" d="M10.5811 2.25012H10.5611C10.4471 2.25012 10.3591 2.25012 10.2751 2.25512C9.75548 2.2867 9.25555 2.4651 8.83336 2.76957C8.41116 3.07404 8.08406 3.49209 7.89005 3.97512C7.84743 4.08852 7.80742 4.20288 7.77005 4.31812L7.76605 4.33012C7.6629 4.60277 7.48851 4.84278 7.26105 5.02512C7.03405 5.03312 6.81705 5.04212 6.60905 5.05512C4.96505 5.15112 3.92205 5.42112 3.17105 6.17212C2.92705 6.41612 2.73305 6.69212 2.58105 7.01012C2.63951 7.03017 2.69527 7.05738 2.74705 7.09112C4.84705 8.45612 6.16705 9.31112 7.26305 9.85812C7.29773 9.67427 7.39986 9.51002 7.54941 9.39761C7.69896 9.28519 7.88512 9.23273 8.07136 9.25052C8.2576 9.2683 8.43046 9.35505 8.55603 9.49374C8.6816 9.63242 8.7508 9.81303 8.75005 10.0001V10.4581C10.8701 11.0981 13.1301 11.0981 15.2501 10.4581V10.0001C15.2506 9.81394 15.3204 9.63462 15.4458 9.49704C15.5713 9.35946 15.7434 9.27345 15.9287 9.25574C16.114 9.23803 16.2993 9.28988 16.4486 9.40122C16.5978 9.51255 16.7003 9.67541 16.7361 9.85812C17.8331 9.31012 19.1531 8.45612 21.2531 7.09112C21.3052 7.05734 21.3613 7.03013 21.4201 7.01012C21.2719 6.69908 21.0717 6.41566 20.8281 6.17212C20.0781 5.42212 19.0351 5.15212 17.3911 5.05412C17.1941 5.04312 16.9881 5.03412 16.7731 5.02612C16.5214 4.8211 16.3271 4.55445 16.2091 4.25212L16.2051 4.24312C16.1691 4.13612 16.1411 4.05212 16.1101 3.97412C15.9159 3.49128 15.5887 3.07344 15.1665 2.76915C14.7444 2.46486 14.2445 2.28662 13.7251 2.25512C13.6298 2.25062 13.5344 2.24895 13.4391 2.25012H10.5811ZM14.8181 4.81612L14.8131 4.80512L14.8081 4.79312L14.8031 4.78112L14.8001 4.77112L14.7981 4.76612L14.7941 4.75412L14.7901 4.74212L14.7881 4.73612L14.7851 4.72812L14.7831 4.72112L14.7811 4.71512C14.7616 4.65426 14.7406 4.59391 14.7181 4.53412C14.6299 4.31454 14.4812 4.12449 14.2894 3.98606C14.0975 3.84763 13.8702 3.7665 13.6341 3.75212C13.5624 3.74961 13.4907 3.74894 13.4191 3.75012H10.5811C10.4381 3.75012 10.3981 3.75012 10.3661 3.75212C10.1299 3.7665 9.90264 3.84763 9.71075 3.98606C9.51886 4.12449 9.3702 4.31454 9.28205 4.53412L9.27905 4.54112L9.27105 4.56212C9.24337 4.6382 9.21736 4.71489 9.19305 4.79212L9.19205 4.79812L9.18905 4.80512L9.18705 4.81312L9.18505 4.81912L9.18105 4.83112L9.17605 4.84312L9.17505 4.84812L9.17105 4.85812L9.16605 4.87012L9.16205 4.88212L9.15705 4.89212C9.14312 4.92841 9.12845 4.96542 9.11305 5.00112L10.0001 5.00012H14.8961C14.8677 4.93967 14.8423 4.8783 14.8181 4.81612Z" fill="#637381"/>
</svg>
