<svg width="22" height="22" viewBox="0 0 22 22" fill="none" xmlns="http://www.w3.org/2000/svg">
<g clip-path="url(#clip0_0_6205)">
<path d="M19.7633 7.9017C19.1301 7.32871 18.0996 7.32874 17.4661 7.90183L15.8373 9.37678V5.4949C15.8373 5.10237 15.6684 4.73335 15.3616 4.45581L13.8303 3.0703C13.5235 2.79272 13.1156 2.63989 12.6818 2.63989H3.38496C2.48937 2.63989 1.76074 3.29912 1.76074 4.10942V17.8904C1.76074 18.7007 2.48937 19.3599 3.38496 19.3599H14.2131C15.1087 19.3599 15.8373 18.7007 15.8373 17.8904V13.535L19.7633 9.97994C20.3981 9.40565 20.3982 8.47605 19.7633 7.9017ZM12.5889 3.61958C12.6912 3.61958 12.8883 3.60355 13.0646 3.76304L14.5959 5.14855C14.7677 5.30402 14.7545 5.47439 14.7545 5.57895H12.5889V3.61958ZM14.7545 17.8904C14.7545 18.1605 14.5117 18.3802 14.2131 18.3802H3.38496C3.08643 18.3802 2.84355 18.1605 2.84355 17.8904V4.10942C2.84355 3.83932 3.08643 3.61958 3.38496 3.61958H11.5061V6.0688C11.5061 6.33932 11.7485 6.55864 12.0475 6.55864H14.7545V10.3573L12.3918 12.4962C12.3324 12.55 12.2876 12.6155 12.261 12.6877L11.4953 14.7659C11.4635 14.8522 11.4589 14.9448 11.482 15.0334C11.5051 15.1219 11.555 15.2029 11.6261 15.2672C11.6972 15.3316 11.7867 15.3767 11.8846 15.3976C11.9824 15.4185 12.0848 15.4143 12.1802 15.3855L14.4772 14.6928C14.5569 14.6688 14.6294 14.6282 14.6888 14.5744L14.7545 14.515V17.8904ZM13.5403 12.8426L14.306 13.5353L14.0135 13.7999L12.865 14.1463L13.2478 13.1072L13.5403 12.8426ZM15.0715 12.8424L14.3058 12.1497L16.9083 9.79302L17.674 10.4858L15.0715 12.8424ZM18.9975 9.28733L18.4394 9.79272L17.6737 9.09998L18.232 8.59443C18.4432 8.40343 18.7866 8.40346 18.9977 8.59443C19.2087 8.78547 19.2099 9.09515 18.9975 9.28733Z" fill="#637381"/>
<path d="M12.0475 7.53833H4.46777C4.16877 7.53833 3.92637 7.75765 3.92637 8.02817C3.92637 8.2987 4.16877 8.51802 4.46777 8.51802H12.0475C12.3465 8.51802 12.5889 8.2987 12.5889 8.02817C12.5889 7.75765 12.3465 7.53833 12.0475 7.53833ZM9.88184 9.4977H4.46777C4.16877 9.4977 3.92637 9.71702 3.92637 9.98755C3.92637 10.2581 4.16877 10.4774 4.46777 10.4774H9.88184C10.1808 10.4774 10.4232 10.2581 10.4232 9.98755C10.4232 9.71702 10.1808 9.4977 9.88184 9.4977ZM9.88184 11.4571H4.46777C4.16877 11.4571 3.92637 11.6764 3.92637 11.9469C3.92637 12.2174 4.16877 12.4368 4.46777 12.4368H9.88184C10.1808 12.4368 10.4232 12.2174 10.4232 11.9469C10.4232 11.6764 10.1808 11.4571 9.88184 11.4571ZM9.88184 13.4165H4.46777C4.16877 13.4165 3.92637 13.6358 3.92637 13.9063C3.92637 14.1768 4.16877 14.3961 4.46777 14.3961H9.88184C10.1808 14.3961 10.4232 14.1768 10.4232 13.9063C10.4232 13.6358 10.1808 13.4165 9.88184 13.4165ZM12.0475 16.4208H8.79902C8.50002 16.4208 8.25762 16.6401 8.25762 16.9107C8.25762 17.1812 8.50002 17.4005 8.79902 17.4005H12.0475C12.3465 17.4005 12.5889 17.1812 12.5889 16.9107C12.5889 16.6401 12.3465 16.4208 12.0475 16.4208Z" fill="#637381"/>
</g>
<defs>
<clipPath id="clip0_0_6205">
<rect width="18.48" height="16.72" fill="white" transform="translate(1.75977 2.63989)"/>
</clipPath>
</defs>
</svg>
