<svg width="16" height="16" viewBox="0 0 16 16" fill="none" xmlns="http://www.w3.org/2000/svg">
<path d="M6.66687 12.6668C6.5111 12.6671 6.36014 12.6128 6.2402 12.5135C6.10386 12.4004 6.0181 12.2378 6.00184 12.0614C5.98558 11.8851 6.04016 11.7095 6.15353 11.5735L9.1402 8.00013L6.2602 4.42013C6.14835 4.2824 6.09602 4.10577 6.11479 3.92934C6.13356 3.75291 6.22188 3.59124 6.3602 3.48013C6.49964 3.35743 6.68395 3.29848 6.86871 3.31746C7.05348 3.33644 7.22195 3.43164 7.33353 3.58013L10.5535 7.58013C10.7557 7.82613 10.7557 8.18079 10.5535 8.42679L7.2202 12.4268C7.08456 12.5904 6.87902 12.6796 6.66687 12.6668Z" fill="#637381"/>
</svg>
