<svg width="4" height="15" viewBox="0 0 4 15" fill="none" xmlns="http://www.w3.org/2000/svg">
<path d="M1.66667 9.16667C2.58714 9.16667 3.33333 8.42048 3.33333 7.5C3.33333 6.57953 2.58714 5.83333 1.66667 5.83333C0.746192 5.83333 0 6.57953 0 7.5C0 8.42048 0.746192 9.16667 1.66667 9.16667Z" fill="#637381"/>
<path d="M1.66667 3.33333C2.58714 3.33333 3.33333 2.58714 3.33333 1.66667C3.33333 0.746192 2.58714 0 1.66667 0C0.746192 0 0 0.746192 0 1.66667C0 2.58714 0.746192 3.33333 1.66667 3.33333Z" fill="#637381"/>
<path d="M1.66667 15C2.58714 15 3.33333 14.2538 3.33333 13.3333C3.33333 12.4129 2.58714 11.6667 1.66667 11.6667C0.746192 11.6667 0 12.4129 0 13.3333C0 14.2538 0.746192 15 1.66667 15Z" fill="#637381"/>
</svg>
