<svg width="16" height="8" viewBox="0 0 16 8" fill="none" xmlns="http://www.w3.org/2000/svg">
<path opacity="0.5" d="M1.00007 0.25C0.846706 0.249886 0.696993 0.296791 0.57111 0.384393C0.445228 0.471995 0.349226 0.596082 0.296046 0.739931C0.242866 0.883779 0.235063 1.04047 0.273689 1.18889C0.312315 1.33731 0.395513 1.47033 0.51207 1.57L7.51207 7.57C7.79207 7.81 8.20707 7.81 8.48807 7.57L15.4881 1.57C15.6046 1.47033 15.6878 1.33731 15.7265 1.18889C15.7651 1.04047 15.7573 0.883779 15.7041 0.739931C15.6509 0.596082 15.5549 0.471995 15.429 0.384393C15.3031 0.296791 15.1534 0.249886 15.0001 0.25H1.00007Z" fill="black"/>
</svg>
